<?xml version="1.0" encoding="UTF-8"?>
<svg id="Capa_2" data-name="Capa 2" xmlns="http://www.w3.org/2000/svg" viewBox="0 0 400 145.6">
  <defs>
    <style>
      .cls-1 {
        fill: #005cff;
      }
    </style>
  </defs>
  <g id="Capa_1-2" data-name="Capa 1">
    <g>
      <path class="cls-1" d="M0,116v-25.6L60.62,2.8h39.77L41.31,90.4l-18.15-5.6h105.6v31.2H0Zm71.43,26.8v-26.8l1.16-31.2v-24h36.1v82h-37.26Z"/>
      <path class="cls-1" d="M271.24,116v-25.6L331.85,2.8h39.77l-59.07,87.6-18.15-5.6h105.6v31.2h-128.76Zm71.43,26.8v-26.8l1.16-31.2v-24h36.1v82h-37.26Z"/>
      <path class="cls-1" d="M249.9,33.4c-5.09-10.93-12.13-19.23-21.14-24.9-9.01-5.67-19.24-8.5-30.7-8.5s-21.85,2.83-30.79,8.5c-8.95,5.67-15.99,13.97-21.14,24.9-5.15,10.94-7.72,24.07-7.72,39.4s2.57,28.47,7.72,39.4c5.15,10.94,12.19,19.24,21.14,24.9,8.94,5.67,19.21,8.5,30.79,8.5s21.68-2.83,30.7-8.5c9.01-5.67,16.05-13.97,21.14-24.9,5.08-10.93,7.63-24.07,7.63-39.4s-2.54-28.47-7.63-39.4Zm-15.9,32.76c-.45,6.07-2.76,11.26-6.87,15.43-6.64,6.75-13.47,13.54-20.06,20.11l-3.2,3.19c-.98,.97-2.13,1.46-3.28,1.46-1.16,0-2.33-.5-3.33-1.49-1.99-1.99-1.99-4.68,0-6.68,5.55-5.57,11.11-11.12,16.67-16.68l6.01-6.01c3.14-3.14,4.74-6.94,4.76-11.29,.02-6.29-3.82-12.06-9.56-14.36-6.33-2.53-12.17-1.45-16.93,3.16-5.4,5.22-10.78,10.64-15.99,15.88-2.24,2.26-4.48,4.52-6.73,6.76l-.37,.37c-.3,.3-.6,.6-.9,.9-3.7,3.74-3.81,9.23-.27,12.78,3.57,3.57,9.07,3.47,12.78-.23,3.87-3.85,7.74-7.72,11.6-11.59l6.61-6.61c1.37-1.37,2.74-2.73,4.1-4.1,.82-.82,.98-1.51,.98-1.95,0-.5-.22-.96-.65-1.37-.55-.53-1.7-1.18-3.24,.36l-9.16,9.15c-4.01,4.01-8.02,8.02-12.03,12.03-1.86,1.86-4.25,2.18-6.24,.84-1.11-.75-1.83-1.89-2.02-3.22-.19-1.33,.17-2.63,1.03-3.66,.22-.27,.48-.53,.76-.8l6.11-6.12c4.99-4.99,9.97-9.98,14.97-14.96,3.81-3.8,8.74-4.77,13.18-2.6,3.58,1.75,5.99,4.86,6.61,8.51,.62,3.64-.6,7.35-3.37,10.17-2.55,2.61-5.18,5.23-7.73,7.76l-.13,.13c-1.12,1.12-2.24,2.23-3.36,3.35-1.21,1.21-2.41,2.41-3.61,3.62-2.71,2.73-5.47,5.51-8.24,8.19-4.59,4.44-11.03,6.14-17.22,4.56-6.17-1.58-10.97-6.13-12.86-12.19-2.16-6.94-.74-13.03,4.2-18.12,8.1-8.33,16.23-16.38,24.54-24.57,4.38-4.32,10.24-6.95,15.67-7.04,8.07,0,15.28,3,20.32,8.43,4.66,5.02,6.94,11.58,6.43,18.48Z"/>
    </g>
  </g>
</svg>