<svg width="29" height="29" viewBox="0 0 29 29" fill="none" xmlns="http://www.w3.org/2000/svg">
<path d="M4.53306 14.5C4.53306 12.5284 5.11772 10.601 6.2131 8.96166C7.30848 7.32231 8.86539 6.04459 10.6869 5.29008C12.5085 4.53557 14.5129 4.33816 16.4466 4.7228C18.3804 5.10745 20.1566 6.05688 21.5508 7.45103C22.9449 8.84519 23.8944 10.6215 24.279 12.5552C24.6637 14.4889 24.4662 16.4933 23.7117 18.3149C22.9572 20.1364 21.6795 21.6933 20.0402 22.7887C18.4008 23.8841 16.4734 24.4688 14.5018 24.4688C14.1413 24.4685 13.7954 24.6115 13.5403 24.8663C13.2852 25.121 13.1418 25.4667 13.1415 25.8272C13.1413 26.1878 13.2843 26.5336 13.539 26.7887C13.7938 27.0438 14.1395 27.1873 14.5 27.1875C17.0093 27.1875 19.4623 26.4434 21.5488 25.0493C23.6352 23.6552 25.2614 21.6736 26.2217 19.3553C27.182 17.037 27.4333 14.4859 26.9437 12.0248C26.4542 9.56366 25.2458 7.30297 23.4714 5.52859C21.697 3.75421 19.4363 2.54584 16.9752 2.05629C14.5141 1.56674 11.963 1.818 9.6447 2.77828C7.32637 3.73857 5.34485 5.36476 3.95073 7.45121C2.55661 9.53766 1.8125 11.9907 1.8125 14.5C1.8125 14.8608 1.95581 15.2068 2.21092 15.4619C2.46602 15.717 2.81201 15.8603 3.17278 15.8603C3.53355 15.8603 3.87954 15.717 4.13465 15.4619C4.38975 15.2068 4.53306 14.8608 4.53306 14.5Z" fill="#005CFF"/>
</svg>
